<svg width="188" height="105" viewBox="0 0 188 105" fill="none" xmlns="http://www.w3.org/2000/svg">
<g filter="url(#filter0_d_366_1278)">
<path d="M71.8081 6L9.99989 64.254" stroke="#16385F" stroke-opacity="0.1" stroke-width="10" stroke-linecap="round"/>
<path d="M71.8081 6L9.99989 64.254" stroke="#16385F" stroke-width="10" stroke-linecap="round"/>
</g>
<g filter="url(#filter1_d_366_1278)">
<path d="M71.8677 6.01953L132.382 63.702" stroke="#16385F" stroke-width="10" stroke-linecap="round"/>
</g>
<rect x="60" y="35.1443" width="12" height="12" fill="#C4D3E9"/>
<rect x="73" y="35.1443" width="11" height="12" fill="#C4D3E9"/>
<path d="M60 49.1443H72V60.1443H60V49.1443Z" fill="#C4D3E9"/>
<rect x="73" y="49.1443" width="11" height="11" fill="#C4D3E9"/>
<path d="M94.4807 6L95.2754 24.5736" stroke="#16385F" stroke-width="10" stroke-linecap="square"/>
<g filter="url(#filter2_d_366_1278)">
<path d="M43.5625 86.2068V70.3787H47.75V86.2068C47.75 87.7172 47.4635 89.0141 46.8906 90.0974C46.3281 91.1807 45.5573 92.0089 44.5781 92.5818C43.6094 93.1547 42.5104 93.4412 41.2812 93.4412C40.0312 93.4412 38.9167 93.1912 37.9375 92.6912C36.9583 92.1912 36.1875 91.4307 35.625 90.4099C35.0625 89.3787 34.7812 88.0766 34.7812 86.5037H38.9844C38.9844 87.3474 39.0781 88.0245 39.2656 88.5349C39.4635 89.0349 39.7344 89.3995 40.0781 89.6287C40.4323 89.8474 40.8333 89.9568 41.2812 89.9568C41.75 89.9568 42.1562 89.811 42.5 89.5193C42.8438 89.2276 43.1042 88.8005 43.2812 88.238C43.4688 87.6755 43.5625 86.9985 43.5625 86.2068ZM57.4219 93.1287H53.4375L53.4688 89.6443H57.4219C58.5781 89.6443 59.4896 89.436 60.1562 89.0193C60.8333 88.5922 61.3125 87.9307 61.5938 87.0349C61.8854 86.1391 62.0312 84.9828 62.0312 83.5662V79.9255C62.0312 78.8422 61.9531 77.9203 61.7969 77.1599C61.6406 76.3891 61.3854 75.7641 61.0312 75.2849C60.6771 74.8057 60.2135 74.4516 59.6406 74.2224C59.0677 73.9932 58.3594 73.8787 57.5156 73.8787H53.3594V70.3787H57.5156C58.8281 70.3787 60.0156 70.5922 61.0781 71.0193C62.1406 71.436 63.0521 72.0505 63.8125 72.863C64.5833 73.6755 65.1719 74.6807 65.5781 75.8787C65.9844 77.0662 66.1875 78.4255 66.1875 79.9568V83.5662C66.1875 85.0974 65.9844 86.4568 65.5781 87.6443C65.1719 88.8318 64.5833 89.8318 63.8125 90.6443C63.0521 91.4568 62.1302 92.0766 61.0469 92.5037C59.974 92.9203 58.7656 93.1287 57.4219 93.1287ZM55.8438 70.3787V93.1287H51.6562V70.3787H55.8438ZM90.0156 89.6443V93.1287H80.1406V89.6443H90.0156ZM81.3438 70.3787V93.1287H77.1562V70.3787H81.3438ZM88.6875 79.7224V83.113H80.1406V79.7224H88.6875ZM89.9531 70.3787V73.8787H80.1406V70.3787H89.9531ZM96 76.2224L98.2656 80.9412L100.312 76.2224H104.625L100.234 84.5037L104.781 93.1287H100.453L98.1094 88.238L95.8594 93.1287H91.5L95.9062 84.5505L91.6562 76.2224H96ZM114.125 76.2224V79.2693H105.672V76.2224H114.125ZM107.797 72.0662H111.781V88.1912C111.781 88.6807 111.833 89.061 111.938 89.3318C112.042 89.5922 112.193 89.7693 112.391 89.863C112.599 89.9568 112.849 90.0037 113.141 90.0037C113.359 90.0037 113.568 89.988 113.766 89.9568C113.964 89.9255 114.109 89.8943 114.203 89.863L114.188 93.0505C113.885 93.1651 113.552 93.2589 113.188 93.3318C112.823 93.4047 112.385 93.4412 111.875 93.4412C111.062 93.4412 110.349 93.2849 109.734 92.9724C109.13 92.6495 108.656 92.1287 108.312 91.4099C107.969 90.6807 107.797 89.7276 107.797 88.5505V72.0662ZM123.406 93.4412C122.281 93.4412 121.281 93.2693 120.406 92.9255C119.542 92.5818 118.807 92.0818 118.203 91.4255C117.599 90.7693 117.135 89.962 116.812 89.0037C116.5 88.0453 116.344 86.9464 116.344 85.7068V84.1912C116.344 82.7849 116.505 81.5662 116.828 80.5349C117.151 79.4932 117.599 78.6339 118.172 77.9568C118.755 77.2693 119.453 76.7589 120.266 76.4255C121.089 76.0818 121.995 75.9099 122.984 75.9099C124.047 75.9099 124.974 76.087 125.766 76.4412C126.568 76.7849 127.229 77.3005 127.75 77.988C128.271 78.6755 128.656 79.5297 128.906 80.5505C129.167 81.561 129.297 82.7328 129.297 84.0662V85.988H118.141V83.0662H125.359V82.6755C125.339 81.9464 125.25 81.3266 125.094 80.8162C124.938 80.3057 124.688 79.9203 124.344 79.6599C124.01 79.3891 123.552 79.2537 122.969 79.2537C122.51 79.2537 122.115 79.3474 121.781 79.5349C121.448 79.712 121.177 79.9932 120.969 80.3787C120.771 80.7537 120.62 81.2589 120.516 81.8943C120.411 82.5193 120.359 83.2849 120.359 84.1912V85.7068C120.359 86.5089 120.432 87.1912 120.578 87.7537C120.724 88.3057 120.938 88.7589 121.219 89.113C121.5 89.4568 121.844 89.7068 122.25 89.863C122.656 90.0193 123.13 90.0974 123.672 90.0974C124.484 90.0974 125.198 89.9516 125.812 89.6599C126.427 89.3578 126.958 88.9568 127.406 88.4568L129.078 90.9099C128.776 91.3162 128.365 91.7172 127.844 92.113C127.323 92.4985 126.693 92.8162 125.953 93.0662C125.224 93.3162 124.375 93.4412 123.406 93.4412ZM136.031 79.738V93.1287H132.031V76.2224H135.828L136.031 79.738ZM140.062 76.0974L140.031 80.0818C139.823 80.0401 139.589 80.0089 139.328 79.988C139.078 79.9672 138.844 79.9568 138.625 79.9568C138.135 79.9568 137.714 80.0401 137.359 80.2068C137.005 80.3735 136.708 80.613 136.469 80.9255C136.229 81.238 136.047 81.6235 135.922 82.0818C135.797 82.5297 135.719 83.0401 135.688 83.613L134.875 83.4724C134.875 82.3891 134.958 81.3891 135.125 80.4724C135.302 79.5557 135.557 78.7589 135.891 78.0818C136.234 77.3943 136.656 76.863 137.156 76.488C137.656 76.1026 138.229 75.9099 138.875 75.9099C139.073 75.9099 139.286 75.9307 139.516 75.9724C139.755 76.0037 139.938 76.0453 140.062 76.0974ZM146.656 76.2224V93.1287H142.641V76.2224H146.656ZM142.438 71.8162C142.438 71.1807 142.635 70.6599 143.031 70.2537C143.427 69.837 143.969 69.6287 144.656 69.6287C145.344 69.6287 145.88 69.837 146.266 70.2537C146.651 70.6599 146.844 71.1807 146.844 71.8162C146.844 72.4412 146.651 72.962 146.266 73.3787C145.88 73.7849 145.344 73.988 144.656 73.988C143.969 73.988 143.427 73.7849 143.031 73.3787C142.635 72.962 142.438 72.4412 142.438 71.8162ZM149.812 85.3005V84.0662C149.812 82.7432 149.974 81.5766 150.297 80.5662C150.62 79.5453 151.078 78.6912 151.672 78.0037C152.266 77.3162 152.974 76.7953 153.797 76.4412C154.63 76.087 155.552 75.9099 156.562 75.9099C157.594 75.9099 158.521 76.087 159.344 76.4412C160.177 76.7953 160.891 77.3162 161.484 78.0037C162.089 78.6912 162.547 79.5453 162.859 80.5662C163.182 81.5766 163.344 82.7432 163.344 84.0662V85.3005C163.344 86.6235 163.182 87.7901 162.859 88.8005C162.547 89.811 162.089 90.6651 161.484 91.363C160.891 92.0505 160.177 92.5714 159.344 92.9255C158.521 93.2693 157.604 93.4412 156.594 93.4412C155.583 93.4412 154.661 93.2693 153.828 92.9255C153.005 92.5714 152.292 92.0505 151.688 91.363C151.083 90.6651 150.62 89.811 150.297 88.8005C149.974 87.7901 149.812 86.6235 149.812 85.3005ZM153.828 84.0662V85.3005C153.828 86.1235 153.891 86.837 154.016 87.4412C154.141 88.0349 154.323 88.5297 154.562 88.9255C154.812 89.3214 155.104 89.6182 155.438 89.8162C155.781 90.0037 156.167 90.0974 156.594 90.0974C157.052 90.0974 157.453 90.0037 157.797 89.8162C158.141 89.6182 158.427 89.3214 158.656 88.9255C158.885 88.5297 159.057 88.0349 159.172 87.4412C159.286 86.837 159.344 86.1235 159.344 85.3005V84.0662C159.344 83.2641 159.276 82.561 159.141 81.9568C159.016 81.3526 158.833 80.8526 158.594 80.4568C158.354 80.061 158.062 79.7641 157.719 79.5662C157.375 79.3578 156.99 79.2537 156.562 79.2537C156.146 79.2537 155.771 79.3578 155.438 79.5662C155.104 79.7641 154.812 80.061 154.562 80.4568C154.323 80.8526 154.141 81.3526 154.016 81.9568C153.891 82.561 153.828 83.2641 153.828 84.0662ZM170.312 79.738V93.1287H166.312V76.2224H170.109L170.312 79.738ZM174.344 76.0974L174.312 80.0818C174.104 80.0401 173.87 80.0089 173.609 79.988C173.359 79.9672 173.125 79.9568 172.906 79.9568C172.417 79.9568 171.995 80.0401 171.641 80.2068C171.286 80.3735 170.99 80.613 170.75 80.9255C170.51 81.238 170.328 81.6235 170.203 82.0818C170.078 82.5297 170 83.0401 169.969 83.613L169.156 83.4724C169.156 82.3891 169.24 81.3891 169.406 80.4724C169.583 79.5557 169.839 78.7589 170.172 78.0818C170.516 77.3943 170.938 76.863 171.438 76.488C171.938 76.1026 172.51 75.9099 173.156 75.9099C173.354 75.9099 173.568 75.9307 173.797 75.9724C174.036 76.0037 174.219 76.0453 174.344 76.0974Z" fill="#203864"/>
</g>
<g filter="url(#filter3_d_366_1278)">
<path d="M133.625 59.393C130.863 59.4198 128.66 61.6799 128.704 64.4409C128.747 67.202 131.021 69.4186 133.783 69.3917L133.625 59.393ZM169.022 69.0492L174.022 69.0006L173.864 59.0018L168.864 59.0504L169.022 69.0492ZM133.783 69.3917L169.022 69.0492L168.864 59.0504L133.625 59.393L133.783 69.3917Z" fill="#16385F"/>
</g>
<g filter="url(#filter4_d_366_1278)">
<path d="M172.305 95.0118L35 95.3125" stroke="#16385F" stroke-opacity="0.1" stroke-width="2" stroke-linecap="square"/>
<path d="M172.305 95.0118L35 95.3125" stroke="#16385F" stroke-width="2" stroke-linecap="square"/>
</g>
<defs>
<filter id="filter0_d_366_1278" x="0.641731" y="1.38574" width="80.5245" height="75.4824" filterUnits="userSpaceOnUse" color-interpolation-filters="sRGB">
<feFlood flood-opacity="0" result="BackgroundImageFix"/>
<feColorMatrix in="SourceAlpha" type="matrix" values="0 0 0 0 0 0 0 0 0 0 0 0 0 0 0 0 0 0 127 0" result="hardAlpha"/>
<feOffset dy="4"/>
<feGaussianBlur stdDeviation="2"/>
<feComposite in2="hardAlpha" operator="out"/>
<feColorMatrix type="matrix" values="0 0 0 0 0 0 0 0 0 0 0 0 0 0 0 0 0 0 0.25 0"/>
<feBlend mode="normal" in2="BackgroundImageFix" result="effect1_dropShadow_366_1278"/>
<feBlend mode="normal" in="SourceGraphic" in2="effect1_dropShadow_366_1278" result="shape"/>
</filter>
<filter id="filter1_d_366_1278" x="62.5227" y="1.39014" width="79.2048" height="74.9412" filterUnits="userSpaceOnUse" color-interpolation-filters="sRGB">
<feFlood flood-opacity="0" result="BackgroundImageFix"/>
<feColorMatrix in="SourceAlpha" type="matrix" values="0 0 0 0 0 0 0 0 0 0 0 0 0 0 0 0 0 0 127 0" result="hardAlpha"/>
<feOffset dy="4"/>
<feGaussianBlur stdDeviation="2"/>
<feComposite in2="hardAlpha" operator="out"/>
<feColorMatrix type="matrix" values="0 0 0 0 0 0 0 0 0 0 0 0 0 0 0 0 0 0 0.25 0"/>
<feBlend mode="normal" in2="BackgroundImageFix" result="effect1_dropShadow_366_1278"/>
<feBlend mode="normal" in="SourceGraphic" in2="effect1_dropShadow_366_1278" result="shape"/>
</filter>
<filter id="filter2_d_366_1278" x="30.7812" y="69.6287" width="147.562" height="31.8125" filterUnits="userSpaceOnUse" color-interpolation-filters="sRGB">
<feFlood flood-opacity="0" result="BackgroundImageFix"/>
<feColorMatrix in="SourceAlpha" type="matrix" values="0 0 0 0 0 0 0 0 0 0 0 0 0 0 0 0 0 0 127 0" result="hardAlpha"/>
<feOffset dy="4"/>
<feGaussianBlur stdDeviation="2"/>
<feComposite in2="hardAlpha" operator="out"/>
<feColorMatrix type="matrix" values="0 0 0 0 0 0 0 0 0 0 0 0 0 0 0 0 0 0 0.25 0"/>
<feBlend mode="normal" in2="BackgroundImageFix" result="effect1_dropShadow_366_1278"/>
<feBlend mode="normal" in="SourceGraphic" in2="effect1_dropShadow_366_1278" result="shape"/>
</filter>
<filter id="filter3_d_366_1278" x="124.703" y="59.0017" width="53.3183" height="18.3901" filterUnits="userSpaceOnUse" color-interpolation-filters="sRGB">
<feFlood flood-opacity="0" result="BackgroundImageFix"/>
<feColorMatrix in="SourceAlpha" type="matrix" values="0 0 0 0 0 0 0 0 0 0 0 0 0 0 0 0 0 0 127 0" result="hardAlpha"/>
<feOffset dy="4"/>
<feGaussianBlur stdDeviation="2"/>
<feComposite in2="hardAlpha" operator="out"/>
<feColorMatrix type="matrix" values="0 0 0 0 0 0 0 0 0 0 0 0 0 0 0 0 0 0 0.25 0"/>
<feBlend mode="normal" in2="BackgroundImageFix" result="effect1_dropShadow_366_1278"/>
<feBlend mode="normal" in="SourceGraphic" in2="effect1_dropShadow_366_1278" result="shape"/>
</filter>
<filter id="filter4_d_366_1278" x="29.9908" y="94.0098" width="147.323" height="10.3047" filterUnits="userSpaceOnUse" color-interpolation-filters="sRGB">
<feFlood flood-opacity="0" result="BackgroundImageFix"/>
<feColorMatrix in="SourceAlpha" type="matrix" values="0 0 0 0 0 0 0 0 0 0 0 0 0 0 0 0 0 0 127 0" result="hardAlpha"/>
<feOffset dy="4"/>
<feGaussianBlur stdDeviation="2"/>
<feComposite in2="hardAlpha" operator="out"/>
<feColorMatrix type="matrix" values="0 0 0 0 0 0 0 0 0 0 0 0 0 0 0 0 0 0 0.25 0"/>
<feBlend mode="normal" in2="BackgroundImageFix" result="effect1_dropShadow_366_1278"/>
<feBlend mode="normal" in="SourceGraphic" in2="effect1_dropShadow_366_1278" result="shape"/>
</filter>
</defs>
</svg>
