<?xml version="1.0" standalone="no"?>
<!DOCTYPE svg PUBLIC "-//W3C//DTD SVG 20010904//EN"
 "http://www.w3.org/TR/2001/REC-SVG-20010904/DTD/svg10.dtd">
<svg version="1.0" xmlns="http://www.w3.org/2000/svg"
 width="188.000000pt" height="105.000000pt" viewBox="0 0 188.000000 105.000000"
 preserveAspectRatio="xMidYMid meet">
<metadata>
Created by potrace 1.10, written by Peter Selinger 2001-2011
</metadata>
<g transform="translate(0.000000,105.000000) scale(0.100000,-0.100000)"
fill="#000000" stroke="none">
<path d="M617 962 c-45 -42 -191 -180 -324 -306 -244 -229 -263 -252 -231
-284 32 -32 58 -14 291 206 337 317 358 337 367 337 4 0 97 -85 206 -190 109
-104 240 -229 290 -277 l92 -88 216 0 216 0 0 50 0 51 -196 -1 -196 -2 -173
164 -173 163 -1 81 c-1 45 -4 102 -7 128 l-7 46 -48 0 -47 0 5 -77 6 -78 -84
78 c-46 42 -92 77 -102 77 -10 0 -55 -35 -100 -78z m148 1 c120 -109 137 -115
161 -58 7 19 14 47 14 62 0 16 4 23 9 17 5 -5 11 -54 14 -108 l5 -99 84 -85
c46 -46 129 -126 186 -178 l103 -94 175 0 c142 0 174 -3 174 -14 0 -11 -26
-15 -125 -17 -69 -2 -152 -2 -184 1 -67 6 -50 -9 -376 304 -102 99 -205 194
-228 211 -42 32 -97 51 -97 33 0 -6 -19 -27 -42 -48 -47 -42 -59 -53 -268
-250 -278 -262 -270 -256 -270 -227 0 9 288 289 424 411 11 11 58 55 103 98
87 84 90 85 138 41z"/>
<path d="M600 640 l0 -60 60 0 60 0 0 60 0 60 -60 0 -60 0 0 -60z m108 -2 c-3
-46 -17 -55 -64 -44 -20 5 -24 12 -24 46 l0 40 46 0 45 0 -3 -42z"/>
<path d="M730 640 l0 -60 55 0 55 0 0 60 0 60 -55 0 -55 0 0 -60z m88 -2 c-3
-42 -4 -43 -38 -43 -34 0 -35 1 -38 43 l-3 42 41 0 41 0 -3 -42z"/>
<path d="M600 505 l0 -55 60 0 60 0 0 55 0 55 -60 0 -60 0 0 -55z m103 36 c4
-1 7 -17 7 -36 0 -19 -3 -35 -7 -36 -5 0 -19 -2 -33 -3 -39 -5 -50 4 -50 39 0
36 11 44 50 39 14 -1 28 -3 33 -3z"/>
<path d="M730 505 l0 -55 55 0 55 0 0 55 0 55 -55 0 -55 0 0 -55z m83 36 c11
-1 8 -71 -3 -72 -5 -1 -19 -1 -30 -1 -37 0 -40 2 -40 35 0 41 5 46 38 42 15
-2 30 -4 35 -4z"/>
<path d="M430 263 c1 -49 2 -94 1 -100 -2 -21 -32 -15 -38 7 -7 26 -43 27 -43
1 0 -48 72 -69 110 -31 17 17 20 33 20 115 l0 95 -26 0 -26 0 2 -87z"/>
<path d="M520 235 l0 -115 45 0 c67 0 95 31 95 104 0 30 -5 66 -11 80 -13 27
-54 46 -100 46 l-29 0 0 -115z m88 63 c18 -18 15 -113 -4 -132 -34 -35 -44
-20 -44 64 0 70 2 80 18 80 10 0 23 -5 30 -12z"/>
<path d="M770 235 l0 -115 65 0 c51 0 65 3 65 15 0 11 -12 15 -45 15 -45 0
-45 0 -45 35 0 34 1 35 40 35 29 0 40 4 40 15 0 11 -11 15 -40 15 -38 0 -40 2
-40 30 0 29 2 30 45 30 38 0 45 3 45 20 0 18 -7 20 -65 20 l-65 0 0 -115z"/>
<path d="M1425 340 c-4 -7 -3 -16 3 -22 14 -14 45 -2 40 15 -6 16 -34 21 -43
7z"/>
<path d="M1080 310 c0 -11 -4 -20 -10 -20 -5 0 -10 -7 -10 -15 0 -8 4 -15 10
-15 5 0 10 -30 12 -67 3 -66 4 -68 31 -71 19 -2 27 1 27 12 0 9 -4 16 -10 16
-5 0 -10 25 -10 55 0 30 5 55 10 55 6 0 10 7 10 15 0 8 -4 15 -10 15 -5 0 -10
9 -10 20 0 13 -7 20 -20 20 -13 0 -20 -7 -20 -20z"/>
<path d="M920 285 c0 -3 9 -23 19 -43 19 -36 19 -38 0 -72 -23 -45 -23 -50 2
-50 12 0 23 8 26 20 3 11 9 20 13 20 5 0 12 -9 15 -20 4 -13 15 -20 30 -20
l24 0 -24 42 -24 42 20 37 c24 47 24 49 0 49 -12 0 -23 -10 -29 -27 l-10 -28
-11 28 c-6 17 -18 27 -31 27 -11 0 -20 -2 -20 -5z"/>
<path d="M1187 273 c-33 -37 -34 -105 -1 -137 27 -27 117 -16 100 13 -4 6 -20
8 -37 4 -21 -4 -34 -1 -40 8 -15 25 -10 29 36 29 44 0 45 0 45 33 0 59 -66 90
-103 50z m63 -33 c10 -18 8 -20 -20 -20 -32 0 -38 8 -18 28 17 17 26 15 38 -8z"/>
<path d="M1320 204 c0 -77 2 -84 20 -84 18 0 20 7 20 61 0 52 3 62 20 66 11 3
20 13 20 23 0 14 -9 18 -40 18 l-40 1 0 -85z"/>
<path d="M1430 205 c0 -78 2 -85 20 -85 18 0 20 7 20 85 0 78 -2 85 -20 85
-18 0 -20 -7 -20 -85z"/>
<path d="M1520 270 c-14 -14 -20 -33 -20 -68 0 -57 20 -82 67 -82 42 0 63 27
63 83 0 54 -25 87 -65 87 -14 0 -34 -9 -45 -20z m65 -65 c0 -43 -3 -50 -20
-50 -16 0 -21 8 -23 39 -4 49 3 68 25 64 14 -3 18 -14 18 -53z"/>
<path d="M1660 205 c0 -78 2 -85 20 -85 16 0 19 8 22 62 3 52 6 63 23 68 11 3
21 13 21 23 2 20 -16 23 -34 5 -9 -9 -12 -9 -12 0 0 7 -9 12 -20 12 -18 0 -20
-7 -20 -85z"/>
<path d="M340 98 c0 -10 144 -12 695 -10 449 1 695 6 695 12 0 7 -245 10 -695
10 -549 0 -695 -3 -695 -12z"/>
</g>
</svg>
