<svg width="188" height="105" viewBox="0 0 188 105" fill="none" xmlns="http://www.w3.org/2000/svg">
<g clip-path="url(#clip0_222_2)">
<g filter="url(#filter0_d_222_2)">
<path d="M71.8082 6L10 64.254" stroke="#16385F" stroke-opacity="0.1" stroke-width="10" stroke-linecap="round"/>
<path d="M71.8082 6L10 64.254" stroke="#16385F" stroke-width="10" stroke-linecap="round"/>
</g>
<g filter="url(#filter1_d_222_2)">
<path d="M71.8677 6.01953L132.382 63.702" stroke="#16385F" stroke-width="10" stroke-linecap="round"/>
</g>
<path d="M72 35.1445H60V47.1445H72V35.1445Z" fill="#C4D3E9"/>
<path d="M84 35.1445H73V47.1445H84V35.1445Z" fill="#C4D3E9"/>
<path d="M60 49.1445H72V60.1445H60V49.1445Z" fill="#C4D3E9"/>
<path d="M84 49.1445H73V60.1445H84V49.1445Z" fill="#C4D3E9"/>
<path d="M94.9248 5.9917L94.8311 24.5821" stroke="#16385F" stroke-width="10" stroke-linecap="square"/>
<g filter="url(#filter2_d_222_2)">
<path d="M43.5625 91.207V75.3789H47.75V91.207C47.75 92.7174 47.4635 94.0143 46.8906 95.0976C46.3281 96.1809 45.5573 97.0091 44.5781 97.582C43.6094 98.1549 42.5105 98.4414 41.2812 98.4414C40.0312 98.4414 38.9167 98.1914 37.9375 97.6914C36.9583 97.1914 36.1875 96.4309 35.625 95.4101C35.0625 94.3789 34.7812 93.0768 34.7812 91.5039H38.9845C38.9845 92.3476 39.0781 93.0247 39.2656 93.5351C39.4635 94.0351 39.7344 94.3997 40.0781 94.6289C40.4323 94.8476 40.8334 94.957 41.2812 94.957C41.7501 94.957 42.1562 94.8112 42.5 94.5195C42.8438 94.2278 43.1042 93.8007 43.2812 93.2382C43.4689 92.6757 43.5625 91.9987 43.5625 91.207ZM57.422 98.1289H53.4375L53.4688 94.6445H57.422C58.5782 94.6445 59.4897 94.4362 60.1562 94.0195C60.8334 93.5924 61.3125 92.9309 61.5938 92.0351C61.8854 91.1393 62.0312 89.983 62.0312 88.5664V84.9257C62.0312 83.8424 61.9532 82.9205 61.797 82.1601C61.6407 81.3893 61.3855 80.7643 61.0312 80.2851C60.6772 79.8059 60.2135 79.4518 59.6406 79.2226C59.0677 78.9934 58.3594 78.8789 57.5156 78.8789H53.3595V75.3789H57.5156C58.8281 75.3789 60.0156 75.5924 61.0781 76.0195C62.1406 76.4362 63.0521 77.0507 63.8125 77.8632C64.5833 78.6757 65.172 79.6809 65.5782 80.8789C65.9845 82.0664 66.1875 83.4257 66.1875 84.957V88.5664C66.1875 90.0976 65.9845 91.457 65.5782 92.6445C65.172 93.832 64.5833 94.832 63.8125 95.6445C63.0521 96.457 62.1303 97.0768 61.047 97.5039C59.9741 97.9205 58.7657 98.1289 57.422 98.1289ZM55.8438 75.3789V98.1289H51.6562V75.3789H55.8438ZM90.0157 94.6445V98.1289H80.1407V94.6445H90.0157ZM81.3439 75.3789V98.1289H77.1562V75.3789H81.3439ZM88.6875 84.7226V88.1132H80.1407V84.7226H88.6875ZM89.9532 75.3789V78.8789H80.1407V75.3789H89.9532ZM96 81.2226L98.2657 85.9414L100.312 81.2226H104.625L100.234 89.5039L104.781 98.1289H100.453L98.1094 93.2382L95.8594 98.1289H91.5L95.9062 89.5507L91.6562 81.2226H96ZM114.125 81.2226V84.2695H105.672V81.2226H114.125ZM107.797 77.0664H111.781V93.1914C111.781 93.6809 111.833 94.0612 111.938 94.332C112.042 94.5924 112.193 94.7695 112.391 94.8632C112.599 94.957 112.849 95.0039 113.141 95.0039C113.359 95.0039 113.568 94.9882 113.766 94.957C113.964 94.9257 114.109 94.8945 114.203 94.8632L114.188 98.0507C113.885 98.1653 113.552 98.2591 113.188 98.332C112.823 98.4049 112.385 98.4414 111.875 98.4414C111.062 98.4414 110.349 98.2851 109.734 97.9726C109.13 97.6497 108.656 97.1289 108.312 96.4101C107.969 95.6809 107.797 94.7278 107.797 93.5507V77.0664ZM123.406 98.4414C122.281 98.4414 121.281 98.2695 120.406 97.9257C119.542 97.582 118.807 97.082 118.203 96.4257C117.599 95.7695 117.135 94.9622 116.812 94.0039C116.5 93.0455 116.344 91.9466 116.344 90.707V89.1914C116.344 87.7851 116.505 86.5664 116.828 85.5351C117.151 84.4934 117.599 83.6341 118.172 82.957C118.755 82.2695 119.453 81.7591 120.266 81.4257C121.089 81.082 121.995 80.9101 122.984 80.9101C124.047 80.9101 124.974 81.0872 125.766 81.4414C126.568 81.7851 127.229 82.3007 127.75 82.9882C128.271 83.6757 128.656 84.5299 128.906 85.5507C129.167 86.5612 129.297 87.733 129.297 89.0664V90.9882H118.141V88.0664H125.359V87.6757C125.339 86.9466 125.25 86.3268 125.094 85.8164C124.938 85.3059 124.688 84.9205 124.344 84.6601C124.01 84.3893 123.552 84.2539 122.969 84.2539C122.51 84.2539 122.115 84.3476 121.781 84.5351C121.448 84.7122 121.177 84.9934 120.969 85.3789C120.771 85.7539 120.62 86.2591 120.516 86.8945C120.411 87.5195 120.359 88.2851 120.359 89.1914V90.707C120.359 91.5091 120.432 92.1914 120.578 92.7539C120.724 93.3059 120.938 93.7591 121.219 94.1132C121.5 94.457 121.844 94.707 122.25 94.8632C122.656 95.0195 123.13 95.0976 123.672 95.0976C124.484 95.0976 125.198 94.9518 125.812 94.6601C126.427 94.358 126.958 93.957 127.406 93.457L129.078 95.9101C128.776 96.3164 128.365 96.7174 127.844 97.1132C127.323 97.4987 126.693 97.8164 125.953 98.0664C125.224 98.3164 124.375 98.4414 123.406 98.4414ZM136.031 84.7382V98.1289H132.031V81.2226H135.828L136.031 84.7382ZM140.062 81.0976L140.031 85.082C139.823 85.0403 139.589 85.0091 139.328 84.9882C139.078 84.9674 138.844 84.957 138.625 84.957C138.135 84.957 137.714 85.0403 137.359 85.207C137.005 85.3737 136.708 85.6132 136.469 85.9257C136.229 86.2382 136.047 86.6237 135.922 87.082C135.797 87.5299 135.719 88.0403 135.688 88.6132L134.875 88.4726C134.875 87.3893 134.958 86.3893 135.125 85.4726C135.302 84.5559 135.557 83.7591 135.891 83.082C136.234 82.3945 136.656 81.8632 137.156 81.4882C137.656 81.1028 138.229 80.9101 138.875 80.9101C139.073 80.9101 139.286 80.9309 139.516 80.9726C139.755 81.0039 139.938 81.0455 140.062 81.0976ZM146.656 81.2226V98.1289H142.641V81.2226H146.656ZM142.438 76.8164C142.438 76.1809 142.635 75.6601 143.031 75.2539C143.427 74.8372 143.969 74.6289 144.656 74.6289C145.344 74.6289 145.88 74.8372 146.266 75.2539C146.651 75.6601 146.844 76.1809 146.844 76.8164C146.844 77.4414 146.651 77.9622 146.266 78.3789C145.88 78.7851 145.344 78.9882 144.656 78.9882C143.969 78.9882 143.427 78.7851 143.031 78.3789C142.635 77.9622 142.438 77.4414 142.438 76.8164ZM149.812 90.3007V89.0664C149.812 87.7434 149.974 86.5768 150.297 85.5664C150.62 84.5455 151.078 83.6914 151.672 83.0039C152.266 82.3164 152.974 81.7955 153.797 81.4414C154.63 81.0872 155.552 80.9101 156.562 80.9101C157.594 80.9101 158.521 81.0872 159.344 81.4414C160.177 81.7955 160.891 82.3164 161.484 83.0039C162.089 83.6914 162.547 84.5455 162.859 85.5664C163.182 86.5768 163.344 87.7434 163.344 89.0664V90.3007C163.344 91.6237 163.182 92.7903 162.859 93.8007C162.547 94.8112 162.089 95.6653 161.484 96.3632C160.891 97.0507 160.177 97.5716 159.344 97.9257C158.521 98.2695 157.604 98.4414 156.594 98.4414C155.583 98.4414 154.661 98.2695 153.828 97.9257C153.005 97.5716 152.292 97.0507 151.688 96.3632C151.083 95.6653 150.62 94.8112 150.297 93.8007C149.974 92.7903 149.812 91.6237 149.812 90.3007ZM153.828 89.0664V90.3007C153.828 91.1237 153.891 91.8372 154.016 92.4414C154.141 93.0351 154.323 93.5299 154.562 93.9257C154.812 94.3216 155.104 94.6184 155.438 94.8164C155.781 95.0039 156.167 95.0976 156.594 95.0976C157.052 95.0976 157.453 95.0039 157.797 94.8164C158.141 94.6184 158.427 94.3216 158.656 93.9257C158.885 93.5299 159.057 93.0351 159.172 92.4414C159.286 91.8372 159.344 91.1237 159.344 90.3007V89.0664C159.344 88.2643 159.276 87.5612 159.141 86.957C159.016 86.3528 158.833 85.8528 158.594 85.457C158.354 85.0612 158.062 84.7643 157.719 84.5664C157.375 84.358 156.99 84.2539 156.562 84.2539C156.146 84.2539 155.771 84.358 155.438 84.5664C155.104 84.7643 154.812 85.0612 154.562 85.457C154.323 85.8528 154.141 86.3528 154.016 86.957C153.891 87.5612 153.828 88.2643 153.828 89.0664ZM170.312 84.7382V98.1289H166.312V81.2226H170.109L170.312 84.7382ZM174.344 81.0976L174.312 85.082C174.104 85.0403 173.87 85.0091 173.609 84.9882C173.359 84.9674 173.125 84.957 172.906 84.957C172.417 84.957 171.995 85.0403 171.641 85.207C171.286 85.3737 170.99 85.6132 170.75 85.9257C170.51 86.2382 170.328 86.6237 170.203 87.082C170.078 87.5299 170 88.0403 169.969 88.6132L169.156 88.4726C169.156 87.3893 169.24 86.3893 169.406 85.4726C169.583 84.5559 169.839 83.7591 170.172 83.082C170.516 82.3945 170.938 81.8632 171.438 81.4882C171.938 81.1028 172.51 80.9101 173.156 80.9101C173.354 80.9101 173.568 80.9309 173.797 80.9726C174.036 81.0039 174.219 81.0455 174.344 81.0976Z" fill="#203864"/>
</g>
<g filter="url(#filter3_d_222_2)">
<path d="M172.305 102.012L35 102.312" stroke="#16385F" stroke-opacity="0.1" stroke-width="2" stroke-linecap="square"/>
<path d="M172.305 102.012L35 102.312" stroke="#16385F" stroke-width="2" stroke-linecap="square"/>
</g>
<g filter="url(#filter4_d_222_2)">
<path d="M133 64.4189L174.06 64.6404" stroke="#16385F" stroke-width="10" stroke-linecap="round"/>
</g>
</g>
<defs>
<filter id="filter0_d_222_2" x="1" y="1" width="79.8081" height="76.2539" filterUnits="userSpaceOnUse" color-interpolation-filters="sRGB">
<feFlood flood-opacity="0" result="BackgroundImageFix"/>
<feColorMatrix in="SourceAlpha" type="matrix" values="0 0 0 0 0 0 0 0 0 0 0 0 0 0 0 0 0 0 127 0" result="hardAlpha"/>
<feOffset dy="4"/>
<feGaussianBlur stdDeviation="2"/>
<feComposite in2="hardAlpha" operator="out"/>
<feColorMatrix type="matrix" values="0 0 0 0 0 0 0 0 0 0 0 0 0 0 0 0 0 0 0.25 0"/>
<feBlend mode="normal" in2="BackgroundImageFix" result="effect1_dropShadow_222_2"/>
<feBlend mode="normal" in="SourceGraphic" in2="effect1_dropShadow_222_2" result="shape"/>
</filter>
<filter id="filter1_d_222_2" x="62.8677" y="1.01953" width="78.5144" height="75.6826" filterUnits="userSpaceOnUse" color-interpolation-filters="sRGB">
<feFlood flood-opacity="0" result="BackgroundImageFix"/>
<feColorMatrix in="SourceAlpha" type="matrix" values="0 0 0 0 0 0 0 0 0 0 0 0 0 0 0 0 0 0 127 0" result="hardAlpha"/>
<feOffset dy="4"/>
<feGaussianBlur stdDeviation="2"/>
<feComposite in2="hardAlpha" operator="out"/>
<feColorMatrix type="matrix" values="0 0 0 0 0 0 0 0 0 0 0 0 0 0 0 0 0 0 0.25 0"/>
<feBlend mode="normal" in2="BackgroundImageFix" result="effect1_dropShadow_222_2"/>
<feBlend mode="normal" in="SourceGraphic" in2="effect1_dropShadow_222_2" result="shape"/>
</filter>
<filter id="filter2_d_222_2" x="30.7812" y="74.6289" width="147.563" height="31.8125" filterUnits="userSpaceOnUse" color-interpolation-filters="sRGB">
<feFlood flood-opacity="0" result="BackgroundImageFix"/>
<feColorMatrix in="SourceAlpha" type="matrix" values="0 0 0 0 0 0 0 0 0 0 0 0 0 0 0 0 0 0 127 0" result="hardAlpha"/>
<feOffset dy="4"/>
<feGaussianBlur stdDeviation="2"/>
<feComposite in2="hardAlpha" operator="out"/>
<feColorMatrix type="matrix" values="0 0 0 0 0 0 0 0 0 0 0 0 0 0 0 0 0 0 0.25 0"/>
<feBlend mode="normal" in2="BackgroundImageFix" result="effect1_dropShadow_222_2"/>
<feBlend mode="normal" in="SourceGraphic" in2="effect1_dropShadow_222_2" result="shape"/>
</filter>
<filter id="filter3_d_222_2" x="29.998" y="101.01" width="147.309" height="10.3047" filterUnits="userSpaceOnUse" color-interpolation-filters="sRGB">
<feFlood flood-opacity="0" result="BackgroundImageFix"/>
<feColorMatrix in="SourceAlpha" type="matrix" values="0 0 0 0 0 0 0 0 0 0 0 0 0 0 0 0 0 0 127 0" result="hardAlpha"/>
<feOffset dy="4"/>
<feGaussianBlur stdDeviation="2"/>
<feComposite in2="hardAlpha" operator="out"/>
<feColorMatrix type="matrix" values="0 0 0 0 0 0 0 0 0 0 0 0 0 0 0 0 0 0 0.25 0"/>
<feBlend mode="normal" in2="BackgroundImageFix" result="effect1_dropShadow_222_2"/>
<feBlend mode="normal" in="SourceGraphic" in2="effect1_dropShadow_222_2" result="shape"/>
</filter>
<filter id="filter4_d_222_2" x="124" y="59.4189" width="59.0598" height="18.2217" filterUnits="userSpaceOnUse" color-interpolation-filters="sRGB">
<feFlood flood-opacity="0" result="BackgroundImageFix"/>
<feColorMatrix in="SourceAlpha" type="matrix" values="0 0 0 0 0 0 0 0 0 0 0 0 0 0 0 0 0 0 127 0" result="hardAlpha"/>
<feOffset dy="4"/>
<feGaussianBlur stdDeviation="2"/>
<feComposite in2="hardAlpha" operator="out"/>
<feColorMatrix type="matrix" values="0 0 0 0 0 0 0 0 0 0 0 0 0 0 0 0 0 0 0.25 0"/>
<feBlend mode="normal" in2="BackgroundImageFix" result="effect1_dropShadow_222_2"/>
<feBlend mode="normal" in="SourceGraphic" in2="effect1_dropShadow_222_2" result="shape"/>
</filter>
<clipPath id="clip0_222_2">
<rect width="188" height="105" fill="white"/>
</clipPath>
</defs>
</svg>
